<svg xmlns="http://www.w3.org/2000/svg" xmlns:svg="http://www.w3.org/2000/svg" xmlns:xlink="http://www.w3.org/1999/xlink" version="1.0" height="650pt" width="1000pt" viewBox="245 97 1008 656" ><defs><style type="text/css">
            @font-face {
                font-family: 'lt_regular';
                src: url('https://app.creately.com/diagram/assets/fonts/lato/lt-regular-webfont.woff2') format('woff2'),
                    url('https://app.creately.com/diagram/assets/fonts/lato/lt-regular-webfont.woff') format('woff');
                font-weight: normal;
                font-style: normal;
            }
            @font-face {
                font-family: 'noto_regular';
                src: url('https://app.creately.com/diagram/assets/fonts/noto/noto-regular.woff') format('woff'),
                     url('https://app.creately.com/diagram/assets/fonts/noto/noto-regular.woff2') format('woff2');
                font-weight: normal;
                font-style: normal;
            }
        p {
            margin: 0;
        }
        </style></defs><defs><style>
            span{ display: inline-block; }
        </style></defs><g id="EwpQLgqukMU"><g transform="translate(250 100)"><rect x="0" y="0" width="150" height="150" rx="2" ry="2" fill="rgb(255,255,255)" stroke="#c08c1c" stroke-width="2" stroke-linecap="round" stroke-linejoin="round"/><path d="M 0,30 L 150,30" fill="rgb(255,255,255)" stroke="#c08c1c" stroke-width="2" stroke-linecap="round" stroke-linejoin="round"/></g><g transform="translate(295.5, 105) rotate(0, 29.5, 0)" width="59" height="20"><text text-decoration="none" x="0" fill="#000000" font-size="11pt" font-family="lt_regular"  y="16">Extractor</text><text text-decoration="none" x="59" fill="#4b4b4b" font-size="10pt" font-family="noto_regular"  y="16"></text></g><g transform="translate(255, 135) rotate(0, 0, 0)" width="0" height="18"><text text-decoration="none" x="0" fill="#4b4b4b" font-size="10pt" font-family="noto_regular"  y="15"></text></g></g><g id="DLFsQtN2E5y"><g transform="translate(700 100)"><rect x="0" y="0" width="150" height="150" rx="2" ry="2" fill="rgb(255,255,255)" stroke="#c08c1c" stroke-width="2" stroke-linecap="round" stroke-linejoin="round"/><path d="M 0,30 L 150,30" fill="rgb(255,255,255)" stroke="#c08c1c" stroke-width="2" stroke-linecap="round" stroke-linejoin="round"/></g><g transform="translate(740.5, 105) rotate(0, 34.5, 0)" width="69" height="20"><text text-decoration="none" x="0" fill="#000000" font-size="11pt" font-family="lt_regular"  y="16">Composite</text><text text-decoration="none" x="71" fill="#4b4b4b" font-size="10pt" font-family="noto_regular"  y="16"></text></g><g transform="translate(705, 135) rotate(0, 0, 0)" width="0" height="18"><text text-decoration="none" x="0" fill="#4b4b4b" font-size="10pt" font-family="noto_regular"  y="15"></text></g></g><g id="M8BpfnoJjcC"><g transform="translate(600 350)"><rect x="0" y="0" width="150" height="150" rx="2" ry="2" fill="rgb(255,255,255)" stroke="#c08c1c" stroke-width="2" stroke-linecap="round" stroke-linejoin="round"/><path d="M 0,30 L 150,30" fill="rgb(255,255,255)" stroke="#c08c1c" stroke-width="2" stroke-linecap="round" stroke-linejoin="round"/></g><g transform="translate(647, 355) rotate(0, 28, 0)" width="56" height="20"><text text-decoration="none" x="0" fill="#000000" font-size="11pt" font-family="lt_regular"  y="16">Operand</text><text text-decoration="none" x="56" fill="#4b4b4b" font-size="10pt" font-family="noto_regular"  y="16"></text></g><g transform="translate(605, 385) rotate(0, 0, 0)" width="0" height="18"><text text-decoration="none" x="0" fill="#4b4b4b" font-size="10pt" font-family="noto_regular"  y="15"></text></g></g><g id="QLy4YSgLDgW"><g transform="translate(800 350)"><rect x="0" y="0" width="150" height="150" rx="2" ry="2" fill="rgb(255,255,255)" stroke="#c08c1c" stroke-width="2" stroke-linecap="round" stroke-linejoin="round"/><path d="M 0,30 L 150,30" fill="rgb(255,255,255)" stroke="#c08c1c" stroke-width="2" stroke-linecap="round" stroke-linejoin="round"/></g><g transform="translate(842.5, 355) rotate(0, 32.5, 0)" width="65" height="20"><text text-decoration="none" x="0" fill="#000000" font-size="11pt" font-family="lt_regular"  y="16">Operation</text><text text-decoration="none" x="66" fill="#4b4b4b" font-size="10pt" font-family="noto_regular"  y="16"></text></g><g transform="translate(805, 385) rotate(0, 0, 0)" width="0" height="18"><text text-decoration="none" x="0" fill="#4b4b4b" font-size="10pt" font-family="noto_regular"  y="15"></text></g></g><g id="65xz9MTXlbK"><g transform="translate(500 600)"><rect x="0" y="0" width="150" height="150" rx="2" ry="2" fill="rgb(255,255,255)" stroke="#c08c1c" stroke-width="2" stroke-linecap="round" stroke-linejoin="round"/><path d="M 0,30 L 150,30" fill="rgb(255,255,255)" stroke="#c08c1c" stroke-width="2" stroke-linecap="round" stroke-linejoin="round"/></g><g transform="translate(547.5, 605) rotate(0, 27.5, 0)" width="55" height="20"><text text-decoration="none" x="0" fill="#000000" font-size="11pt" font-family="lt_regular"  y="16">Addition</text><text text-decoration="none" x="56" fill="#4b4b4b" font-size="10pt" font-family="noto_regular"  y="16"></text></g><g transform="translate(505, 635) rotate(0, 0, 0)" width="0" height="18"><text text-decoration="none" x="0" fill="#4b4b4b" font-size="10pt" font-family="noto_regular"  y="15"></text></g></g><g id="ehGhyn66L10"><g transform="translate(700 600)"><rect x="0" y="0" width="150" height="150" rx="2" ry="2" fill="rgb(255,255,255)" stroke="#c08c1c" stroke-width="2" stroke-linecap="round" stroke-linejoin="round"/><path d="M 0,30 L 150,30" fill="rgb(255,255,255)" stroke="#c08c1c" stroke-width="2" stroke-linecap="round" stroke-linejoin="round"/></g><g transform="translate(738, 605) rotate(0, 37, 0)" width="74" height="20"><text text-decoration="none" x="0" fill="#000000" font-size="11pt" font-family="lt_regular"  y="16">Subtraction</text><text text-decoration="none" x="74" fill="#4b4b4b" font-size="10pt" font-family="noto_regular"  y="16"></text></g><g transform="translate(705, 635) rotate(0, 0, 0)" width="0" height="18"><text text-decoration="none" x="0" fill="#4b4b4b" font-size="10pt" font-family="noto_regular"  y="15"></text></g></g><g id="sF0ZrSxZHhF"><g><path d="M 400,175 L 700,175" fill="none" stroke="#7E7E7E" stroke-width="2" stroke-linecap="round" stroke-linejoin="round"/></g></g><g id="qhCel0OCQFj"><g><path d="M 713,350 L 712.599995000375,309.9995000374969 Q 712.5,300 722.5,300 L 744,300 L 765,300 Q 775,300 775,290 L 775,250" fill="none" stroke="#7E7E7E" stroke-width="2" stroke-linecap="round" stroke-linejoin="round"/><path d="M 775,250 L 769.25,258.69565217391306 L 780.75,258.69565217391306 Z" fill="rgb(126,126,126)" stroke="#7E7E7E" stroke-width="2" stroke-linecap="round" stroke-linejoin="round"/></g></g><g id="7AT5MbECERq"><g><path d="M 838,350 L 837.599995000375,309.9995000374969 Q 837.5,300 827.5,300 L 806,300 L 785,300 Q 775,300 775,290 L 775,250" fill="none" stroke="#7E7E7E" stroke-width="2" stroke-linecap="round" stroke-linejoin="round"/><path d="M 775,250 L 769.25,258.69565217391306 L 780.75,258.69565217391306 Z" fill="rgb(126,126,126)" stroke="#7E7E7E" stroke-width="2" stroke-linecap="round" stroke-linejoin="round"/></g></g><g id="E5oIH9TdpX1"><g transform="translate(900 600)"><rect x="0" y="0" width="149.99999999999997" height="150" rx="2" ry="2" fill="rgb(255,255,255)" stroke="#c08c1c" stroke-width="2" stroke-linecap="round" stroke-linejoin="round"/><path d="M 0,30 L 149.99999999999997,30" fill="rgb(255,255,255)" stroke="#c08c1c" stroke-width="2" stroke-linecap="round" stroke-linejoin="round"/></g><g transform="translate(931, 605) rotate(0, 44, 0)" width="88" height="20"><text text-decoration="none" x="0" fill="#000000" font-size="11pt" font-family="lt_regular"  y="16">Multiplication</text><text text-decoration="none" x="91" fill="#4b4b4b" font-size="10pt" font-family="noto_regular"  y="16"></text></g><g transform="translate(905, 635) rotate(0, 0, 0)" width="0" height="18"><text text-decoration="none" x="0" fill="#4b4b4b" font-size="10pt" font-family="noto_regular"  y="15"></text></g></g><g id="C63NuMYriKW"><g transform="translate(1100 600)"><rect x="0" y="0" width="150" height="150" rx="2" ry="2" fill="rgb(255,255,255)" stroke="#c08c1c" stroke-width="2" stroke-linecap="round" stroke-linejoin="round"/><path d="M 0,30 L 150,30" fill="rgb(255,255,255)" stroke="#c08c1c" stroke-width="2" stroke-linecap="round" stroke-linejoin="round"/></g><g transform="translate(1149, 605) rotate(0, 26, 0)" width="52" height="20"><text text-decoration="none" x="0" fill="#000000" font-size="11pt" font-family="lt_regular"  y="16">Division</text><text text-decoration="none" x="54" fill="#4b4b4b" font-size="10pt" font-family="noto_regular"  y="16"></text></g><g transform="translate(1105, 635) rotate(0, 0, 0)" width="0" height="18"><text text-decoration="none" x="0" fill="#4b4b4b" font-size="10pt" font-family="noto_regular"  y="15"></text></g></g><g id="gAfPktkcDzf"><g><path d="M 575,600 L 575,560 Q 575,550 585,550 L 725,550 L 865,550 Q 875,550 875,540 L 875,500" fill="none" stroke="#7E7E7E" stroke-width="2" stroke-linecap="round" stroke-linejoin="round"/><path d="M 875,500 L 869.25,508.69565217391306 L 880.75,508.69565217391306 Z" fill="rgb(126,126,126)" stroke="#7E7E7E" stroke-width="2" stroke-linecap="round" stroke-linejoin="round"/></g></g><g id="XwOa2Rz7WA3"><g><path d="M 775,600 L 775,560 Q 775,550 785,550 L 825,550 L 865,550 Q 875,550 875,540 L 875,500" fill="none" stroke="#7E7E7E" stroke-width="2" stroke-linecap="round" stroke-linejoin="round"/><path d="M 875,500 L 869.25,508.69565217391306 L 880.75,508.69565217391306 Z" fill="rgb(126,126,126)" stroke="#7E7E7E" stroke-width="2" stroke-linecap="round" stroke-linejoin="round"/></g></g><g id="PLPwPuu6oEO"><g><path d="M 975,600 L 975,560 Q 975,550 965,550 L 925,550 L 885,550 Q 875,550 875,540 L 875,500" fill="none" stroke="#7E7E7E" stroke-width="2" stroke-linecap="round" stroke-linejoin="round"/><path d="M 875,500 L 869.25,508.69565217391306 L 880.75,508.69565217391306 Z" fill="rgb(126,126,126)" stroke="#7E7E7E" stroke-width="2" stroke-linecap="round" stroke-linejoin="round"/></g></g><g id="aEodVy69WaO"><g><path d="M 1175,600 L 1175,560 Q 1175,550 1165,550 L 1025,550 L 885,550 Q 875,550 875,540 L 875,500" fill="none" stroke="#7E7E7E" stroke-width="2" stroke-linecap="round" stroke-linejoin="round"/><path d="M 875,500 L 869.25,508.69565217391306 L 880.75,508.69565217391306 Z" fill="rgb(126,126,126)" stroke="#7E7E7E" stroke-width="2" stroke-linecap="round" stroke-linejoin="round"/></g></g></svg>